<svg xmlns="http://www.w3.org/2000/svg" width="181" height="47" viewBox="0 0 181 47" fill="none">
	<g id="Wikibase Logo" clip-path="url(#clip0_35_204)">
		<path id="Vector" d="M16.3369 5.6382e-05H30.5491C35.2708 5.6382e-05 39.0009 5.63725e-05 41.5506 0.80934C44.3364 1.66122 45.2807 3.36497 46.225 5.77863C47.0277 8.33426 46.8861 10.7006 46.8861 15.4332V31.5716C46.8861 36.3043 46.8861 39.0965 46.0834 41.6522C45.6112 43.4506 44.3364 44.965 41.5506 46.1955C39.6147 47.0001 35.2708 47.0001 30.5491 47.0001H16.3369C11.6153 47.0001 7.88517 47.0001 5.33547 46.1955C3.30516 45.5329 1.79423 44.3971 0.802682 41.6048C0 39.0492 0 36.2569 0 31.5243V15.4332C0 10.7006 0 8.38159 0.802682 5.82596C1.60536 3.31765 2.88021 2.03983 5.80764 0.80934C8.35733 -0.0898641 11.6153 5.6382e-05 16.3369 5.6382e-05Z" fill="#ffffff"/>
		<path id="Vector_2" d="M113.934 37.8187C113.934 41.3209 116.814 44.1132 120.308 44.1132C123.802 44.1132 126.588 41.2736 126.635 37.7714C126.635 34.0326 123.802 31.5243 120.213 31.5243C116.625 31.5243 113.934 34.3166 113.934 37.8187ZM120.261 32.7075C123.282 32.7075 125.266 35.0265 125.266 37.7714C125.266 40.753 123.094 42.8353 120.308 42.8353C117.522 42.8353 115.35 40.5637 115.35 37.8187C115.303 35.0265 117.286 32.7075 120.261 32.7075ZM101.516 28.732V31.8556H99.7686V32.8021H101.563V40.611C101.61 42.4567 102.507 43.9239 104.726 43.9712C105.293 43.9712 105.718 43.8765 106.143 43.7819V42.6934C105.812 42.8353 105.387 42.93 104.962 42.93C103.876 42.93 102.838 42.1728 102.838 40.6583V32.8021H105.576V31.8556H102.838V28.732H101.516ZM110.487 43.7819V31.8083H109.165V43.7819H110.487ZM108.787 28.6847C108.787 29.2526 109.259 29.7259 109.826 29.7259C110.392 29.7259 110.865 29.2526 110.865 28.6847C110.865 28.1168 110.392 27.6435 109.826 27.6435C109.259 27.6435 108.787 28.1168 108.787 28.6847ZM142.169 34.6005C142.169 35.689 142.594 36.8249 144.247 37.6294C144.672 37.8187 145.474 38.1973 146.23 38.5286C147.174 38.9546 147.835 39.7591 147.835 40.8003C147.835 42.0308 146.844 42.9773 145.238 42.9773C143.916 42.9773 143.161 42.0781 142.783 41.4629L141.697 42.0308C142.405 43.3559 143.68 44.0658 145.285 44.0658C147.363 44.0658 149.11 42.788 149.157 40.5637C149.157 39.1439 148.307 38.0554 146.844 37.3928L145.616 36.8249C144.624 36.3989 143.491 35.831 143.491 34.4585C143.491 33.37 144.436 32.5182 145.521 32.5182C146.702 32.5182 147.316 33.3227 147.599 33.8433L148.638 33.37C148.071 32.1395 146.985 31.4296 145.569 31.4296C143.538 31.5243 142.216 32.8494 142.169 34.6005ZM97.3134 39.9957V31.8083H96.0385V40.0431C96.0385 42.0308 94.4332 43.0246 92.8278 43.0246C91.2224 43.0246 89.4282 42.3147 89.4282 39.9957V31.8083H88.1061V40.0431C88.1534 42.8827 89.9948 44.0658 92.7806 44.0658C95.1886 44.1132 97.2662 42.788 97.3134 39.9957ZM79.6544 37.7714C79.6544 34.0326 76.8214 31.5243 73.2329 31.5243C69.6445 31.5243 66.9531 34.3166 66.9531 37.8187C66.9531 41.3209 69.8333 44.1132 73.3273 44.1132C76.8214 44.1605 79.6071 41.2736 79.6544 37.7714ZM68.3224 37.8187C68.3224 35.0265 70.3055 32.6601 73.2329 32.6601C76.2548 32.6601 78.2379 34.9791 78.2379 37.7241C78.2379 40.7056 76.0659 42.788 73.2801 42.788C70.4943 42.8353 68.3224 40.611 68.3224 37.8187ZM84.1399 43.7819V27.5962H82.8179V43.7819H84.1399ZM131.687 33.4647L131.073 34.4112V31.8556H129.798V43.8292H131.12V37.1088C131.12 34.9318 132.301 32.8021 134.945 32.8021C135.842 32.8021 136.598 33.0387 137.117 33.5593C137.636 34.0799 137.825 34.8372 137.825 35.689V43.7819H139.147V35.0738C139.147 32.8968 137.636 31.5716 135.134 31.5243C133.623 31.5243 132.584 32.1395 131.687 33.4647ZM64.7811 40.611C64.7811 39.1912 63.9312 38.1027 62.4675 37.4401L61.2399 36.8722C60.2484 36.4463 59.1152 35.8783 59.0679 34.5059C59.0679 33.4174 60.0123 32.5655 61.0983 32.5655C62.2787 32.5655 62.8925 33.37 63.1758 33.8906L64.2145 33.4174C63.6479 32.1869 62.562 31.477 61.1455 31.477C59.1152 31.477 57.7459 32.8021 57.7459 34.5532C57.7459 35.6417 58.1708 36.7775 59.8234 37.5821C60.2484 37.7714 61.0038 38.15 61.8065 38.4813C62.7508 38.9072 63.4119 39.7118 63.4119 40.753C63.4119 41.9835 62.4203 42.93 60.815 42.93C59.4929 42.93 58.7374 42.0308 58.3597 41.4155L57.2737 41.9835C57.982 43.3086 59.2568 44.0185 60.8622 44.0185C63.0341 44.1132 64.7811 42.8353 64.7811 40.611Z" fill="#328e6e"/>
		<path id="Vector_3" d="M73.7523 15.7644L70.7304 6.96167H66.9059L64.0729 15.7171L60.9094 6.96167H55.9044L61.9481 22.7214H66.0088L68.8418 14.2973L71.7692 22.7214H75.8298L81.7791 6.96167H76.8214L73.7523 15.7644Z" fill="#328e6e"/>
		<path id="Vector_4" d="M88.5783 6.96167H83.8094V22.7214H88.5783V6.96167Z" fill="#328e6e"/>
		<path id="Vector_5" d="M85.9814 0C84.376 0 83.1012 1.32514 83.1012 2.88692C83.1012 4.4487 84.3288 5.77384 85.8869 5.77384C87.5395 5.77384 88.8144 4.4487 88.8144 2.83959C88.8616 1.23049 87.5395 0 85.9814 0Z" fill="#328e6e"/>
		<path id="Vector_6" d="M105.86 6.96174H100.099L95.6136 12.5936V1.7085H90.8919V22.7215H95.6136V16.3797C95.9441 16.853 100.288 22.7215 100.288 22.7215H106.285L99.6742 14.25L105.86 6.96174Z" fill="#328e6e"/>
		<path id="Vector_7" d="M112.375 6.96167H107.654V22.7214H112.375V6.96167Z" fill="#328e6e"/>
		<path id="Vector_8" d="M109.826 0C108.22 0 106.946 1.32514 106.946 2.88692C106.946 4.4487 108.173 5.77384 109.731 5.77384C111.384 5.77384 112.659 4.4487 112.659 2.83959C112.706 1.23049 111.384 0 109.826 0Z" fill="#328e6e"/>
		<path id="Vector_9" d="M124.699 6.67778C121.96 6.67778 119.883 8.47619 119.883 8.47619V1.7085H115.161V22.7215H119.788V21.0651C121.252 22.4849 122.763 23.1001 124.841 23.1001C129.232 23.1001 132.018 19.2666 132.018 14.9126C132.018 10.6059 129.279 6.67778 124.699 6.67778ZM123.802 18.888C121.347 18.888 119.741 17.3263 119.741 14.9126C119.741 12.6409 121.394 11.1265 123.613 11.1265C125.832 11.1265 127.296 12.8302 127.296 14.818C127.296 17.0423 126.115 18.888 123.802 18.888Z" fill="#328e6e"/>
		<path id="Vector_10" d="M145.663 6.96166V8.57076C144.247 7.29294 143.066 6.63037 141.13 6.63037C136.786 6.63037 133.528 10.5111 133.528 14.8652C133.528 19.8818 136.503 23.0054 140.894 23.0054C143.869 23.0054 145.569 21.1123 145.569 21.1123V22.6267H150.338V6.96166H145.663ZM141.98 18.8406C139.808 18.8406 138.392 17.0422 138.392 14.8652C138.392 12.6882 139.855 11.1264 142.122 11.1264C144.199 11.1264 145.852 12.6882 145.852 15.0072C145.852 17.3262 144.058 18.8406 141.98 18.8406Z" fill="#328e6e"/>
		<path id="Vector_11" d="M156.57 11.4577C156.57 10.8425 157.042 10.5112 157.798 10.5112C159.167 10.5112 159.734 11.7417 159.734 11.7417L163.322 10.1326C162.331 7.95555 160.442 6.67773 158.176 6.67773C154.729 6.67773 152.179 8.7601 152.179 11.789C152.179 17.3262 159.214 16.285 159.214 18.2254C159.214 18.9826 158.317 19.3139 157.514 19.3139C156.098 19.3139 155.343 17.9415 155.343 17.9415L151.707 19.7872C152.934 22.1062 154.87 23.0527 157.514 23.0527C160.82 23.0527 163.794 21.2543 163.794 17.8468C163.842 12.4989 156.57 13.2561 156.57 11.4577Z" fill="#328e6e"/>
		<path id="Vector_12" d="M180.981 15.2912C180.981 9.70663 177.77 6.67773 173.285 6.67773C168.799 6.67773 165.258 10.0852 165.258 14.8652C165.258 20.1185 168.563 23.0527 173.379 23.0527C176.684 23.0527 179.329 21.3963 180.698 18.9826C179.848 18.462 177.015 16.8056 177.015 16.8056C176.212 17.8941 175.173 18.9826 173.615 18.9826C171.821 18.9826 170.357 18.0834 169.932 16.2377H180.981C181.028 15.9064 180.981 15.6698 180.981 15.2912ZM170.074 12.9248C170.641 11.4577 171.538 10.7005 173.143 10.7005C174.607 10.7005 175.457 11.4104 175.976 12.9248H170.074Z" fill="#328e6e"/>
		<path id="Vector_13" d="M23.5611 27.0755C25.5169 27.0755 27.1023 25.4864 27.1023 23.5261C27.1023 21.5657 25.5169 19.9766 23.5611 19.9766C21.6053 19.9766 20.0198 21.5657 20.0198 23.5261C20.0198 25.4864 21.6053 27.0755 23.5611 27.0755Z" fill="#328e6e"/>
		<path id="Vector_14" d="M35.8846 34.0798C35.8846 34.0798 35.8846 34.5531 35.7901 34.7424C35.6957 35.0264 35.4124 35.263 35.0819 35.3576C34.893 35.405 34.6569 35.405 34.4681 35.4523H27.2912C26.5357 35.4523 25.9219 36.0675 25.9219 36.8248C25.9219 37.582 26.5357 38.1972 27.2912 38.1972H35.318C36.2623 38.1972 36.7345 38.1972 37.2539 38.0553C37.8205 37.866 38.2454 37.3927 38.4343 36.8721C38.5759 36.3515 38.5759 35.8782 38.5759 34.9317V32.0921V15.5278V12.1676C38.5759 11.2211 38.5759 10.7478 38.4343 10.2272C38.2454 9.65933 37.7732 9.23339 37.2539 9.04408C36.7345 8.9021 36.2623 8.9021 35.318 8.9021H27.2912C26.5357 8.9021 25.9219 9.51734 25.9219 10.2746C25.9219 11.0318 26.5357 11.647 27.2912 11.647H34.4681C34.7042 11.647 34.9402 11.6944 35.0819 11.7417C35.4124 11.8363 35.6485 12.073 35.7901 12.3569C35.8846 12.5462 35.8846 13.0195 35.8846 13.0195V34.0798Z" fill="#328e6e"/>
		<path id="Vector_15" d="M11.2375 31.2876V13.0195C11.2375 13.0195 11.2375 12.5462 11.332 12.3569C11.4736 12.073 11.7097 11.8363 12.0402 11.7417C12.1819 11.6944 12.418 11.647 12.654 11.647H19.831C20.5864 11.647 21.2002 11.0318 21.2002 10.2746C21.2002 9.51734 20.5864 8.9021 19.831 8.9021H11.8041C10.8598 8.9021 10.3876 8.9021 9.86827 9.04408C9.34888 9.23339 8.87672 9.65933 8.68785 10.2272C8.5462 10.7478 8.5462 11.2211 8.5462 12.1676V15.5278V32.0921V34.9317C8.5462 35.8782 8.5462 36.3515 8.68785 36.8721C8.87672 37.3927 9.30167 37.866 9.86827 38.0553C10.3876 38.1972 10.8598 38.1972 11.8041 38.1972H19.831C20.5864 38.1972 21.2002 37.582 21.2002 36.8248C21.2002 36.0675 20.5864 35.4523 19.831 35.4523H12.654C12.4652 35.405 12.2291 35.405 12.0402 35.3576C11.7097 35.263 11.4264 35.0264 11.332 34.7424C11.2375 34.5531 11.2375 34.0798 11.2375 34.0798V31.2876Z" fill="#328e6e"/>
	</g>
	<defs fill="#000000">
		<linearGradient id="paint0_linear_35_204" x1="0" y1="23.4977" x2="46.8955" y2="23.4977" gradientUnits="userSpaceOnUse" fill="#000000">
			<stop stop-color="#328e6e" fill="#000000"/>
			<stop offset="0.03" stop-color="#328e6e" fill="#000000"/>
			<stop offset="0.13" stop-color="#328e6e" fill="#000000"/>
			<stop offset="0.27" stop-color="#328e6e" fill="#000000"/>
			<stop offset="0.58" stop-color="#328e6e" fill="#000000"/>
			<stop offset="0.95" stop-color="#328e6e" fill="#000000"/>
		</linearGradient>
		<clipPath id="clip0_35_204" fill="#000000">
			<rect width="181" height="47" fill="#328e6e"/>
		</clipPath>
	</defs>
</svg>