<?xml version="1.0" encoding="UTF-8" standalone="no"?>
<svg xmlns="http://www.w3.org/2000/svg" width="47" height="47" viewBox="-10 -10 67 67" fill="none">
	<g id="Wikibase Logo" clip-path="url(#clip0_35_204)">
		<path id="Vector" d="M16.3369 5.6382e-05H30.5491C35.2708 5.6382e-05 39.0009 5.63725e-05 41.5506 0.80934C44.3364 1.66122 45.2807 3.36497 46.225 5.77863C47.0277 8.33426 46.8861 10.7006 46.8861 15.4332V31.5716C46.8861 36.3043 46.8861 39.0965 46.0834 41.6522C45.6112 43.4506 44.3364 44.965 41.5506 46.1955C39.6147 47.0001 35.2708 47.0001 30.5491 47.0001H16.3369C11.6153 47.0001 7.88517 47.0001 5.33547 46.1955C3.30516 45.5329 1.79423 44.3971 0.802682 41.6048C0 39.0492 0 36.2569 0 31.5243V15.4332C0 10.7006 0 8.38159 0.802682 5.82596C1.60536 3.31765 2.88021 2.03983 5.80764 0.80934C8.35733 -0.0898641 11.6153 5.6382e-05 16.3369 5.6382e-05Z" fill="#ffffff"/>
		<path id="Vector_13" d="M23.5611 27.0755C25.5169 27.0755 27.1023 25.4864 27.1023 23.5261C27.1023 21.5657 25.5169 19.9766 23.5611 19.9766C21.6053 19.9766 20.0198 21.5657 20.0198 23.5261C20.0198 25.4864 21.6053 27.0755 23.5611 27.0755Z" fill="#328e6e"/>
		<path id="Vector_14" d="M35.8846 34.0798C35.8846 34.0798 35.8846 34.5531 35.7901 34.7424C35.6957 35.0264 35.4124 35.263 35.0819 35.3576C34.893 35.405 34.6569 35.405 34.4681 35.4523H27.2912C26.5357 35.4523 25.9219 36.0675 25.9219 36.8248C25.9219 37.582 26.5357 38.1972 27.2912 38.1972H35.318C36.2623 38.1972 36.7345 38.1972 37.2539 38.0553C37.8205 37.866 38.2454 37.3927 38.4343 36.8721C38.5759 36.3515 38.5759 35.8782 38.5759 34.9317V32.0921V15.5278V12.1676C38.5759 11.2211 38.5759 10.7478 38.4343 10.2272C38.2454 9.65933 37.7732 9.23339 37.2539 9.04408C36.7345 8.9021 36.2623 8.9021 35.318 8.9021H27.2912C26.5357 8.9021 25.9219 9.51734 25.9219 10.2746C25.9219 11.0318 26.5357 11.647 27.2912 11.647H34.4681C34.7042 11.647 34.9402 11.6944 35.0819 11.7417C35.4124 11.8363 35.6485 12.073 35.7901 12.3569C35.8846 12.5462 35.8846 13.0195 35.8846 13.0195V34.0798Z" fill="#328e6e"/>
		<path id="Vector_15" d="M11.2375 31.2876V13.0195C11.2375 13.0195 11.2375 12.5462 11.332 12.3569C11.4736 12.073 11.7097 11.8363 12.0402 11.7417C12.1819 11.6944 12.418 11.647 12.654 11.647H19.831C20.5864 11.647 21.2002 11.0318 21.2002 10.2746C21.2002 9.51734 20.5864 8.9021 19.831 8.9021H11.8041C10.8598 8.9021 10.3876 8.9021 9.86827 9.04408C9.34888 9.23339 8.87672 9.65933 8.68785 10.2272C8.5462 10.7478 8.5462 11.2211 8.5462 12.1676V15.5278V32.0921V34.9317C8.5462 35.8782 8.5462 36.3515 8.68785 36.8721C8.87672 37.3927 9.30167 37.866 9.86827 38.0553C10.3876 38.1972 10.8598 38.1972 11.8041 38.1972H19.831C20.5864 38.1972 21.2002 37.582 21.2002 36.8248C21.2002 36.0675 20.5864 35.4523 19.831 35.4523H12.654C12.4652 35.405 12.2291 35.405 12.0402 35.3576C11.7097 35.263 11.4264 35.0264 11.332 34.7424C11.2375 34.5531 11.2375 34.0798 11.2375 34.0798V31.2876Z" fill="#328e6e"/>
	</g>
</svg>